<?xml version="1.0" encoding="utf-8"?>
<!-- Generator: Adobe Illustrator 16.0.0, SVG Export Plug-In . SVG Version: 6.00 Build 0)  -->
<!DOCTYPE svg PUBLIC "-//W3C//DTD SVG 1.1//EN" "http://www.w3.org/Graphics/SVG/1.1/DTD/svg11.dtd">
<svg version="1.1" id="Layer_1" xmlns="http://www.w3.org/2000/svg" xmlns:xlink="http://www.w3.org/1999/xlink" x="0px" y="0px"
	 width="744px" height="190px" viewBox="0 0 744 190" enable-background="new 0 0 744 190" xml:space="preserve">
<g>
	<path fill="#F58C1F" d="M629.5,93.583c0,4.333,0,8.667,0,13.001c-3.889,3.508-7.777,1.586-11.668-0.002
		c-0.17-2.604-2.146-1.973-3.674-1.984c-5.303-0.041-10.605,0.031-15.906-0.029c-6.027-0.069-9.445-3.744-9.418-9.986
		c3.771-2.414,7.916-1.448,11.969-1.326c3.561,0.498,7.105,1.059,10.73,1.009c2.494-0.033,4.936,0.312,5.795,3.376
		c0.217,0.514,0.891-0.479,0.338-0.107c-0.197,0.132-0.258,0-0.389-0.309c-0.484-1.133-0.461-2.205,0.248-3.245
		C621.436,91.341,625.432,91.332,629.5,93.583z"/>
	<path fill="#F58A1F" d="M194.5,95.583c0.626,12,0.626,12-11.433,12c-5.487,0-10.995-0.295-16.46,0.065
		c-8.896,0.592-10.064-1.893-10.772-11.096c4.004-4.783,8.29-1.71,12.517-0.465c5.153,1.453,10.296,2.883,14.641-1.911
		C186.883,94.233,190.896,93.24,194.5,95.583z"/>
	<path fill="#F58A1F" d="M735.5,96.557c0.43,8.453-1.982,11.021-10.363,11.023c-8.811,0.004-17.635-0.287-26.426,0.119
		c-4.631,0.213-3.977-2.375-4.09-5.215c-0.125-3.148-0.051-5.304,4.297-5.017c6.455,0.431,12.959,0.113,19.443,0.106
		c1.797-0.002,3.664,0.316,5.191-1.041C726.068,96.078,734.467,96.094,735.5,96.557z"/>
	<path fill="#F9A31A" d="M693.832,84.58c0.869-9.868,2.047-11,11.447-11c8.314,0,16.633-0.055,24.947,0.051
		c1.459,0.019,3.957-1.081,4.203,1.188c0.322,2.996,1.498,6.511-0.842,9.037c-1.313,1.418-3.725,1.89-5.709,2.603
		c-2.729,0.981-3.064-1.313-3.988-2.964c-0.299-0.535-1.406-0.85-2.152-0.864c-4.322-0.081-8.646-0.045-12.973-0.043
		c-1.965,0.001-3.188,0.759-2.973,2.956C701.863,84.534,697.76,85.636,693.832,84.58z"/>
	<path fill="#F9A21B" d="M341.618,81.473c1.041-5,4.876-7.784,11.289-7.868c8.12-0.106,16.244-0.022,24.365-0.026
		c2.021-0.002,4.596-0.146,4.254,2.688c-0.377,3.113,2.293,7.123-2.1,9.248c-1.887,0.911-4.045,1.264-5.918,2.195
		c-2.518,1.252-4.127,1.412-3.857-2.12c0.152-1.993-1.18-1.999-2.582-2.015c-2.482-0.028-4.965-0.106-7.447-0.164
		c-5.284-1.401-10.646,2.02-15.916-0.263C342.855,82.78,341.114,83.528,341.618,81.473z"/>
	<path fill="#F9A21B" d="M384.83,84.58c0-3.333,0.002-6.666,0.002-10c4.111-2.708,8.537-0.61,12.811-0.836
		c7.08,0.131,14.189-1.056,21.232,0.775c5.297,1.378,7.246,5.07,7.625,10.062c-4.307,2.413-8.627,1.404-12.947,0.04
		c-2.84-1.974-6.064-0.604-9.076-1.06c-2.385-0.362-5.129,1.164-7.088-1.963c-0.537-0.855-0.248,1.443-0.889,2.016
		C392.9,87.435,388.906,86.506,384.83,84.58z"/>
	<path fill="#F9A21B" d="M430.836,84.581c-0.59-11.002-0.59-11.001,10.396-11.001c6.137,0,12.275-0.043,18.414,0.011
		c6.309,0.056,11.061,2.431,12.854,8.986c-4.275,0.855-8.422,3.333-12.951,1.045c-3.801-0.014-7.602-0.108-11.398-0.011
		c-2.18,0.057-4.063-0.195-5.166-3.394c-0.232,2.111-0.357,3.237-0.482,4.363C438.613,86.787,434.725,86.788,430.836,84.581z"/>
	<path fill="#F58A1F" d="M308.497,94.617c0.298,3.025,2.45,2.998,4.726,2.98c6.649-0.049,13.314,0.256,19.943-0.115
		c4.267-0.237,3.65,2.357,3.45,4.742c-0.186,2.215,1.638,5.57-3.237,5.426c-8.471-0.252-16.956,0.013-25.433-0.094
		c-6.787-0.086-10.428-3.793-11.112-10.975C300.45,94.316,304.629,95.393,308.497,94.617z"/>
	<path fill="#F7971D" d="M308.497,94.617c-3.355,3.813-7.794,1.203-11.663,1.965c0-4.333,0-8.667,0-13
		c3.596-2.387,7.42-1.583,11.238-0.817c5.667,3.796,11.479,3.319,17.364,0.548c3.094-0.55,6.233,0.107,9.338-0.385
		c1.258-0.199,2.228,0.403,2.732,1.628c0.022,7.087-1.782,9.359-8.315,8.929c-6.562-0.434-13.28,1.765-19.745-1.229
		C308.523,91.828,308.893,93.815,308.497,94.617z"/>
	<path fill="#F9A21B" d="M588.834,81.616c2.08-5.593,6.324-7.985,12.064-8.023c7.43-0.049,14.857-0.015,22.289-0.012
		c6.545,0.002,6.551,0.005,6.473,6.533c-0.01,0.822-0.104,1.644-0.16,2.466c-3.572,2.539-7.926,0.824-11.719,2.165
		c-5.258,0.603-10.57-0.083-15.82,0.646c-3.484,0.311-6.795-1.292-10.316-0.917C589.748,84.674,589.25,83.089,588.834,81.616z"/>
	<path fill="#F9A21B" d="M541.533,82.556c0.145-5.495,3.932-8.039,8.467-8.564c8.361-0.969,16.865-0.941,25.225-0.019
		c4.635,0.512,8.459,3.285,9.273,8.605c-4.281,1.243-8.529,2.65-13.07,2.658c-5.197-0.511-10.42-0.035-15.611-0.404
		C550.984,84.542,546.246,83.63,541.533,82.556z"/>
	<path fill="#F9A21B" d="M337.506,84.555c-3.806-1.337-7.964,1.533-11.672-0.978c-5.681,0.634-11.362,0.775-17.046,0.038
		c-3.985-0.012-7.97-0.023-11.955-0.034c1.865-7.212,5.059-9.874,12.282-9.982c6.124-0.093,12.25-0.021,18.376-0.02
		C336.142,73.581,337.887,75.494,337.506,84.555z"/>
	<path fill="#F9A21B" d="M476.834,82.578c0.785-3.991,3.039-7.101,6.967-7.872c9.717-1.909,19.549-1.898,29.299-0.086
		c4.189,0.778,6.43,3.618,6.688,7.924c-4.211,1.522-8.563,2.284-13.035,2.444c-4.701-0.039-9.406,0.34-14.088-0.274
		C487.52,83.047,481.865,85.111,476.834,82.578z"/>
	<path fill="#F7971D" d="M194.5,95.583c-3.881-0.418-7.916,0.96-11.663-1.003c-5.062,1.056-10.495-0.743-15.335,2.002
		c-3.887-0.85-7.771-2.37-11.667-0.029c-0.022-6.386,2.173-10.877,9.739-10.067c4.744,0.508,9.639-0.325,14.367,0.249
		c3.418,0.415,2.793-1.215,2.604-3.12c3.926-1.03,7.811-2.534,11.955-1.033C194.5,86.916,194.5,91.249,194.5,95.583z"/>
	<path fill="#F9A31A" d="M194.5,82.582c-3.964,0.588-7.865,1.891-11.955,1.033c-4.93-2.243-10.128-0.529-15.181-1.005
		c-1.978-0.187-4.011-0.219-5.979,0.012c-3.504,0.41-4.946-0.485-4.879-4.479c0.063-3.735,1.008-4.787,4.746-4.654
		c8.304,0.295,16.626,0.089,24.941,0.091C193.932,73.582,194.912,74.646,194.5,82.582z"/>
	<path fill="#F7971D" d="M691.502,82.582c0.064,2.124,0.18,4.15-0.42,6.342c-0.961,3.507-2.732,4.842-6.32,4.714
		c-5.816-0.209-11.65-0.156-17.473-0.003c-1.969,0.052-3.424-0.392-4.494-2.023c-3.994,3.166-7.979,1.558-11.961-0.031
		c0.109-3.025-1.115-6.155,0.721-9.043c4.264-2.158,8.238-1.428,12.031,1.186c5.918,2.518,11.676,2.457,17.234-1.042
		C684.371,81.431,687.922,80.103,691.502,82.582z"/>
	<path fill="#F9A31B" d="M662.715,84.693c-3.318-2.796-7.346-1.93-11.16-2.156c0.529-5.6,2.973-8.038,10.391-8.781
		c7.686-0.769,15.512-0.303,23.27-0.125c4.738,0.108,6.326,2.603,6.287,8.951c-3.715-0.33-7.338,0.327-10.955,1.032
		C674.633,84.501,668.605,83.464,662.715,84.693z"/>
	<path fill="#F5891F" d="M519.787,99.611c-2.066,5.639-5.096,7.918-10.818,7.959c-6.939,0.049-13.885,0.065-20.824-0.006
		c-5.889-0.063-9.484-2.832-10.596-7.953c1.328-1.879,3.426-2.029,5.377-2.107c10.813-0.426,21.627-0.756,32.43,0.248
		C517.01,97.906,518.709,98.041,519.787,99.611z"/>
	<path fill="#F7961D" d="M693.832,84.58c4.09-0.938,8.211-2.275,11.963,0.963c7.789,0.688,15.59,1.261,23.361,2.106
		c4.191,0.456,6.369,3.773,6.344,8.908c-3.984,1.459-7.967,1.084-11.947-0.021c0.176-3.034-2.166-1.59-3.484-1.951
		c-5.732-1.569-11.699-1.068-17.531-1.679C696.734,92.297,694.301,89.911,693.832,84.58z"/>
	<path fill="#F58A1F" d="M380.5,98.582c0.477,9,0.477,9-8.395,9c-6.802,0-13.604,0.09-20.405-0.027
		c-5.534-0.096-9.069-2.982-10.152-7.943c2.396-2.75,5.808-2.582,8.81-2.385c8.804,0.578,17.601,0.184,26.396,0.365
		C378.082,97.619,379.436,97.559,380.5,98.582z"/>
	<path fill="#F5891F" d="M690.5,98.582c0.477,9,0.477,9-8.318,9c-6.605,0-13.213,0.037-19.818-0.014
		c-5.721-0.043-8.742-2.313-10.809-7.945c2.174-3.395,5.857-2.609,8.643-2.227c9.145,1.26,18.285,0.346,27.414,0.698
		C688.594,98.133,689.621,97.918,690.5,98.582z"/>
	<path fill="#F58A1F" d="M583.783,100.623c-1.664,4.779-5.357,6.805-10.088,6.914c-7.271,0.168-14.547,0.121-21.818,0.021
		c-5.904-0.082-9.148-2.996-10.342-8.957c10.992-2.429,22.143-1.281,33.221-1.218C577.846,97.402,581.383,97.871,583.783,100.623z"
		/>
	<path fill="#F9A31B" d="M285.5,72.581c1.391,1.836,3.38,0.641,5.062,1.001c1.346,0.287,3.521-0.838,3.871,1.049
		c0.438,2.36,0.41,5.018-0.265,7.295c-0.413,1.395-2.69,0.402-4.104,0.659c-1.533,0.278-3.355-0.757-4.565,0.997
		c-3.632,3.324-7.562,3.176-11.665,0.998c-0.117-0.479-0.243-1.378-0.35-1.375c-6.472,0.14-5.783-5.529-7.809-9.057
		c2.751-1.518,5.86,0.717,8.158-1.568C277.724,70.369,281.611,70.369,285.5,72.581z"/>
	<path fill="#F48020" d="M617.832,106.582c3.891-0.744,7.779,1.75,11.668,0.002c0.021,3.906,1.385,8.145-2.719,11.037
		c-7.729,1.563-15.516-0.045-23.268,0.418c-2.643,0.158-5.305,0.068-7.959-0.031c-2.215-0.082-4.303-0.463-5.719-2.426
		c-0.582-2.738-0.125-4.242,3.328-4.082c6.092,0.283,12.207,0.084,18.311,0.078C614.896,111.574,617.734,110.818,617.832,106.582z"
		/>
	<path fill="#F79A1C" d="M211.5,80.581c0.098,1.431,0.195,2.86,0.302,4.414c2.563-0.137,3.036-3.729,5.752-3.459
		c3.836-1.744,7.952-1.225,11.972-1.461c1.095-0.064,1.886,0.479,2.257,1.55c-1.477,3.529-6.252,4.05-7.282,7.986
		c-0.155,0.483-0.39,1.046-0.841,1.171c-7.956,2.196-15.899,1.752-23.826-0.202c0-3.333,0-6.666,0-9.999
		C203.723,78.368,207.611,78.368,211.5,80.581z"/>
	<path fill="#F6911E" d="M519.787,99.611c-14.078-1.447-28.158-1.719-42.238,0c-1.836-2.883-0.598-6.01-0.715-9.03
		c3.879-2.357,7.871-1.188,11.848-0.391c3.387,6.141,14.316,7.407,19,2.188c3.873-3.425,8.322-2.776,12.818-1.797
		C520.385,93.602,521.619,96.729,519.787,99.611z"/>
	<path fill="#F6921E" d="M199.833,90.58c8.207-0.716,16.53,1.532,24.667-0.969c2.763,2.976,5.524,5.952,8.286,8.928
		c-5.065,2.293-10.143,2.521-15.234,0.082c-1.712-1.525-3.424-3.049-5.601-4.987c-0.174,1.906-0.313,3.427-0.45,4.946
		c-3.89,2.207-7.778,2.207-11.668,0C199.833,95.914,199.833,93.247,199.833,90.58z"/>
	<path fill="#F6901E" d="M583.783,100.623c-12.67-3.143-25.453-2.791-38.213-0.877c-1.863,0.279-2.693-0.816-4.035-1.145
		c-1.742-2.541-0.58-5.337-0.701-8.02c4.646-1.228,8.883-0.426,12.688,2.546c5.385,3.696,15.414,2.981,18.607-1.349
		c4.094-1.818,8.24-0.563,12.371-0.197C584.381,94.605,585.629,97.736,583.783,100.623z"/>
	<path fill="#FCFCFC" d="M543.828,141.574c-2.9,0.084-6.857,0.481-9.836-3.113c-2.557-3.088-3.17-6.414-1.654-10
		c1.498-3.545,4.125-5.83,8.219-5.877c2.656-0.029,5.318-0.09,7.971,0.035c1.119,0.053,3.008-0.82,3.057,1.338
		c0.057,2.539-2.084,1.494-3.311,1.574c-2.48,0.16-4.988-0.08-7.469,0.08c-3.824,0.246-5.994,2.428-6.098,6.248
		c-0.109,4.086,2.1,6.379,6.158,6.688c2.145,0.164,4.316-0.039,6.473,0.049c1.641,0.068,2.42-0.4,2.359-2.219
		c-0.057-1.686-0.988-1.852-2.262-1.797c-0.332,0.016-0.695,0.09-0.99-0.016c-1.883-0.672-5.529,1.657-5.459-1.716
		c0.055-2.67,3.547-1.122,5.424-1.188c6.34-0.219,7.607,1.689,6.313,8.189c-0.33,1.65-1.143,1.738-2.373,1.727
		C548.523,141.563,546.695,141.574,543.828,141.574z"/>
	<path fill="#FCFCFC" d="M272.706,141.385c-1.163,0.078-2.151,0.463-2.643,0.127c-3.823-2.625-7.101-6.432-12.575-5.072
		c-0.583,0.146-0.823-0.84-0.793-1.555c0.047-1.135,0.819-1.281,1.679-1.289c2.327-0.021,4.654-0.014,6.982-0.02
		c2.542-0.008,4.168-1.289,4.248-3.797c0.087-2.758-1.567-4.015-4.34-4.229c-10.598-0.826-10.506-0.869-10.677,9.953
		c-0.031,1.996,1.411,5.705-1.365,5.737c-2.993,0.035-0.927-3.672-1.542-5.623c-0.095-0.301-0.038-0.661-0.009-0.991
		c0.344-3.916-1.795-9.834,0.836-11.297c3.575-1.984,9.144-1.419,13.589-0.562c6.77,1.307,8.988,6.924,4.891,11.514
		c-2.534,2.839-1.74,3.568,0.168,5.312C271.627,140.023,272.001,140.563,272.706,141.385z"/>
	<path fill="#FCFCFC" d="M472.924,141.578c-4.742,0.846-8.9-1.176-10.813-6.207c-1.477-3.887-0.588-7.742,2.895-10.639
		c2.859-2.379,11.73-3.179,15.422-1.226c3.865,2.043,5.625,5.229,5.256,9.646C485.221,138.67,481.107,141.578,472.924,141.578z"/>
	<path fill="#FCFCFC" d="M516.688,122.578c9.436,0,13.705,3.74,12.949,10.826c-0.467,4.389-3.268,7.199-7.35,8.08
		c-8.049,1.731-13.344-0.326-15.785-5.535c-1.898-4.053-0.795-8.32,2.676-11.4C511.666,122.344,514.563,122.521,516.688,122.578z"/>
	<path fill="#FCFCFC" d="M314.689,141.578c-8.232,0-12.21-3.301-12.022-9.975c0.139-4.937,4.017-8.841,8.995-9.019
		c1.489-0.054,2.981-0.013,4.473-0.006c6.584,0.02,10.523,3.565,10.532,9.475c0.01,5.947-3.901,9.5-10.486,9.522
		C315.685,141.58,315.188,141.578,314.689,141.578z"/>
	<path fill="#F37920" d="M589.836,115.582c4.334,1.629,8.852,0.836,13.295,0.988c7.887,0.272,15.826-0.629,23.65,1.051
		c-2.613,3.219-6.275,3.883-10.078,3.932c-7.148,0.09-14.322-0.316-21.443,0.141C590.182,122.021,588.748,120.193,589.836,115.582z"
		/>
	<path fill="#FBAD17" d="M524.834,74.576c-0.055-2.311-0.152-4.621-0.158-6.933c-0.021-8.39,1.563-9.566,9.973-8.118
		c2.271,0.392,2.02,1.722,2.012,3.158c-0.025,3.964-0.104,7.929-0.158,11.893C532.611,75.394,528.723,75.394,524.834,74.576z"/>
	<path fill="#FCFCFC" d="M454.668,135.719c0-3.795-0.1-6.779,0.047-9.75c0.063-1.225-0.963-3.373,1.584-3.305
		c2.154,0.059,1.309,1.953,1.328,3.066c0.092,5.143,0.041,10.287,0.041,15.481c-4.27-4.674-8.482-9.287-12.695-13.897
		c-0.768,0.565-1.537,1.133-2.305,1.7c0,2.726,0.189,5.468-0.076,8.166c-0.145,1.484,1.469,4.265-1.549,4.229
		c-2.566-0.028-1.236-2.596-1.311-3.979c-0.193-3.646-0.174-7.314-0.008-10.963c0.059-1.283-1.072-3.189,1.045-3.813
		c1.777-0.521,2.697,1.092,3.588,2.168C447.371,128.477,450.283,132.203,454.668,135.719z"/>
	<path fill="#F6901E" d="M380.5,98.582c-12.982,0.363-26.01-0.92-38.952,1.029c-1.835-2.883-0.598-6.01-0.714-9.03
		c3.89-2.199,7.778-1.525,11.668,0.001c-0.53,4.691,1.401,6.416,6.218,6.093c6.107-0.407,12.266-0.164,18.396-0.047
		C378.42,96.654,380.809,95.495,380.5,98.582z"/>
	<path fill="#F7961D" d="M413.553,84.621c4.316-0.014,8.633-0.027,12.947-0.04c0.002,4.333,0.002,8.667,0.002,13
		c-4.104,2.178-8.035,2.323-11.668-0.998C413.971,92.642,415.924,88.4,413.553,84.621z"/>
	<path fill="#F7961D" d="M273.834,84.58c3.907-0.107,7.875,0.482,11.665-0.998c0.001,4.666,0.002,9.332,0.003,13.999
		c-3.89,0.998-7.779,2.313-11.67,0C273.833,93.248,273.833,88.914,273.834,84.58z"/>
	<path fill="#F7961D" d="M430.836,84.581c3.889,0,7.777,0,11.666,0c0,4.333,0,8.667,0,13c-4.076,1.924-8.07,2.858-11.668-0.972
		C430.834,92.599,430.834,88.589,430.836,84.581z"/>
	<path fill="#F8A01B" d="M524.834,74.576c3.889-1.385,7.777-1.384,11.666,0c0,4.012,0,8.022,0,12.034
		c-3.889,2.176-7.777,2.184-11.666-0.004C524.834,82.596,524.834,78.587,524.834,74.576z"/>
	<path fill="#FCFCFC" d="M248.496,141.352c-1.543,0.201-3.47,0.844-3.894-0.49c-2.026-6.391-7.362-3.668-11.456-4.42
		c0.765-3.799,4.146-2.399,6.404-3.213c-0.033-2.768-2.465-4.178-3.26-6.215c-4.669,4.213-4.804,12.346-12.885,15.373
		c3.702-6.359,6.828-11.635,9.857-16.963c2.177-3.832,3.251-4.004,5.539-0.33C242.115,130.412,245.23,135.854,248.496,141.352z"/>
	<path fill="#F7961D" d="M384.83,84.58c3.885-0.394,7.91,0.921,11.67-0.966c0,4.645,0,9.29,0.002,13.935
		c-3.891,0.662-7.777,0.658-11.668,0.004C384.832,93.229,384.832,88.905,384.83,84.58z"/>
	<path fill="#F7961D" d="M646.5,84.582c0,3.999,0,7.999,0.002,11.999c-3.891,2.207-7.779,2.207-11.668,0c0-4,0-8,0-12
		C638.723,82.369,642.611,82.368,646.5,84.582z"/>
	<path fill="#F9A61A" d="M211.5,80.581c-3.889,0-7.777,0-11.667,0c0.001-4,0.001-8.001,0.002-12.001
		c3.888-2.211,7.776-2.211,11.664,0C211.5,72.58,211.5,76.581,211.5,80.581z"/>
	<path fill="#F58A1F" d="M217.553,98.621c5.078-0.027,10.156-0.055,15.234-0.082c2.857,2.705,5.714,5.41,8.914,8.439
		C231.604,108.936,223.115,107.971,217.553,98.621z"/>
	<path fill="#F6931E" d="M524.834,86.606c3.889,0.001,7.777,0.003,11.666,0.004c0,3.99,0,7.98,0,11.97
		c-3.889,2.207-7.777,2.207-11.666,0C524.834,94.589,524.834,90.597,524.834,86.606z"/>
	<path fill="#FCFCFC" d="M407.504,141.576c-9.238,0.002-13.451-3.502-12.828-10.717c0.371-4.275,3.066-7.162,6.836-8.015
		c3.641-0.823,7.604-0.235,11.424-0.248c0.855-0.002,1.607,0.15,1.699,1.279c0.113,1.366-0.645,1.696-1.787,1.694
		c-2.826-0.002-5.656-0.082-8.479,0.027c-4.363,0.168-6.922,2.703-6.672,6.701c0.25,4.051,2.527,6.193,6.619,6.268
		c2.658,0.049,5.318,0,7.979,0.021c1.135,0.01,2.463-0.224,2.34,1.644c-0.098,1.477-1.189,1.315-2.143,1.336
		C410.83,141.598,409.168,141.574,407.504,141.576z"/>
	<path fill="#FCFCFC" d="M197.667,131.967c0-9.389,0.003-9.523,9.601-9.281c2.077,0.053,5.944-1.795,6.044,1.502
		c0.08,2.644-3.725,0.922-5.751,1.359c-2.2,0.475-5.909-1.055-6.435,0.791c-1.003,3.525-0.427,7.525-0.321,11.324
		c0.026,0.963,1.19,0.908,2.011,0.91c1.327,0.004,2.733-0.277,3.965,0.067c2.264,0.636,6.378-1.995,6.492,1.57
		c0.087,2.728-4.061,1.229-6.229,1.278C197.67,141.697,197.668,141.58,197.667,131.967z"/>
	<path fill="#FCFCFC" d="M383.303,141.578c-7.635,0-7.635,0-7.635-7.871c0-11.178,0-11.178,11.348-11.129
		c0.994,0.006,1.988,0,2.984,0.021c0.879,0.019,1.572,0.228,1.645,1.33c0.088,1.396-0.73,1.647-1.848,1.646
		c-2.156-0.006-4.354,0.27-6.461-0.053c-4.141-0.632-5.246,1.256-4.68,4.93c0.076,0.486,0.012,0.994,0.012,1.492
		c0,6.633,0.004,6.504,6.875,6.717c2.018,0.061,5.715-1.393,5.785,1.305c0.082,3.123-3.604,1.021-5.547,1.578
		C385.016,141.762,384.131,141.578,383.303,141.578z"/>
	<path fill="#F7981D" d="M588.834,81.616c2.705,3.59,7.047,0.283,10.123,2.394c0.51,0.35,1.217,0.411,1.832,0.605
		c1.973,3.309,1.922,6.615-0.01,9.92c-3.98,0.016-7.963,0.031-11.945,0.047C588.834,90.26,588.834,85.938,588.834,81.616z"/>
	<path fill="#F58A1F" d="M634.834,96.58c3.889,0,7.777,0,11.668,0c0.055,1.814-0.072,3.656,0.201,5.438
		c0.688,4.475-0.939,5.971-5.547,5.672c-6.486-0.42-6.516-0.102-6.48-6.658C634.684,99.547,634.779,98.064,634.834,96.58z"/>
	<path fill="#F7991D" d="M617.555,83.621c3.844-1.944,7.967-0.682,11.945-1.041c0,3.668,0,7.335,0,11.003
		c-3.883,0.403-7.916-0.967-11.666,0.998C615.225,90.992,615.654,87.325,617.555,83.621z"/>
	<path fill="#F9A31B" d="M646.5,84.582c-3.889-0.001-7.777-0.001-11.666-0.001c-0.057-1.813,0.068-3.651-0.203-5.432
		c-0.678-4.464,0.939-5.977,5.549-5.678c6.48,0.42,6.512,0.1,6.48,6.663C646.654,81.617,646.557,83.099,646.5,84.582z"/>
	<path fill="#F58A1F" d="M384.834,97.553c3.889-1.506,7.777-1.5,11.668-0.004c0.055,1.484-0.039,2.994,0.193,4.451
		c0.709,4.457-0.904,5.994-5.537,5.691c-6.51-0.427-6.537-0.103-6.482-6.674C384.686,99.861,384.777,98.707,384.834,97.553z"/>
	<path fill="#F9A31A" d="M231.783,81.625c-3.258-0.532-6.571-0.842-9.701,0.312c-1.729,0.638-2.979-0.93-4.527-0.4
		c4.854-7.6,11.52-9.726,23.383-7.156C237.521,76.725,235.477,80.136,231.783,81.625z"/>
	<path fill="#F58A1F" d="M273.833,97.58c3.891,0.736,7.779-1.756,11.67,0c0.055,1.482-0.041,2.99,0.193,4.443
		c0.721,4.473-0.94,5.961-5.539,5.666c-6.509-0.418-6.536-0.103-6.482-6.65C273.685,99.885,273.777,98.732,273.833,97.58z"/>
	<path fill="#F58A1F" d="M414.834,96.582c3.791,1.48,7.76,0.889,11.668,0.998c0.055,0.988,0.146,1.975,0.158,2.963
		c0.072,7.045,0.047,6.727-6.484,7.146c-4.607,0.297-6.229-1.201-5.543-5.672C414.906,100.236,414.779,98.396,414.834,96.582z"/>
	<path fill="#F58A1F" d="M430.834,96.609c3.758,1.896,7.785,0.574,11.668,0.972c0.055,0.987,0.146,1.975,0.158,2.961
		c0.072,7.047,0.047,6.735-6.473,7.146c-4.564,0.287-6.262-1.145-5.557-5.647C430.91,100.262,430.779,98.422,430.834,96.609z"/>
	<path fill="#FBB016" d="M640.408,69.426c-4.355,1.104-5.791-0.3-5.961-5.154c-0.213-6.086,3.469-4.44,6.656-4.73
		c3.867-0.353,5.707,0.207,5.809,5.094C647.031,70.35,644.08,69.858,640.408,69.426z"/>
	<path fill="#FBAD17" d="M285.5,72.581c-3.888-0.001-7.776-0.001-11.665-0.001c-0.056-1.481,0.037-2.987-0.195-4.44
		c-0.715-4.468,0.942-5.963,5.541-5.668c6.509,0.417,6.536,0.1,6.482,6.654C285.652,70.278,285.557,71.428,285.5,72.581z"/>
	<path fill="#F6921E" d="M690.5,98.582c-12.213,0.047-24.428,0.076-36.643,0.178c-0.771,0.006-1.535,0.563-2.303,0.863
		c-1.789-2.543-0.594-5.352-0.721-8.043c3.988-0.535,7.971,0.915,11.959,0.031c-0.859,4.42,0.572,6.366,5.439,6.057
		c6.098-0.387,12.238-0.16,18.357-0.037C687.885,97.656,689.604,96.668,690.5,98.582z"/>
	<path fill="#F79A1C" d="M552.504,93.581c-3.469-2.637-7.865-1.664-11.67-2.998c0.109-2.687-1.031-5.481,0.699-8.026
		c1.793-0.765,3.555-1.596,5.439-0.143c2.361,1.818,5.307,0.127,7.807,1.208C554.203,86.983,554.781,90.608,552.504,93.581z"/>
	<path fill="#F7981D" d="M584.5,91.583c-3.887,1.748-7.775,0.662-11.664-0.002c-2.016-2.236-1.949-4.536-0.215-6.889
		c3.85-1.318,7.637-2.993,11.877-2.113C584.498,85.581,584.5,88.582,584.5,91.583z"/>
	<path fill="#F5891F" d="M472.5,98.582c0.164,11.012,1.906,8.631-8.803,9.033c-2.393,0.09-3.275-0.748-3.057-3.105
		c0.186-1.965,0.139-3.951,0.193-5.928C464.723,96.367,468.611,96.367,472.5,98.582z"/>
	<path fill="#FBB116" d="M211.5,68.58c-3.888,0-7.776,0-11.664,0c-0.176-11.014-1.857-8.633,8.801-9.034
		c2.395-0.09,3.271,0.761,3.056,3.109C211.512,64.62,211.556,66.604,211.5,68.58z"/>
	<path fill="#F79A1C" d="M352.502,90.583c-3.89-0.001-7.778-0.001-11.668-0.001c0.153-3.045-1.111-6.213,0.783-9.108
		c5.812,2.407,12.15-0.084,18.003,1.938C352.865,83.775,352.865,83.775,352.502,90.583z"/>
	<path fill="#F58A1F" d="M199.833,98.58c3.89,0,7.778,0,11.668,0c0.162,11.02,1.91,8.631-8.804,9.035
		c-2.395,0.092-3.277-0.748-3.057-3.105C199.826,102.545,199.778,100.559,199.833,98.58z"/>
	<path fill="#F5891F" d="M524.834,98.58c3.889,0,7.777,0,11.666,0c0.162,11.014,1.912,8.633-8.803,9.035
		c-2.395,0.09-3.275-0.75-3.057-3.105C524.826,102.545,524.779,100.557,524.834,98.58z"/>
	<path fill="#FCFCFC" d="M553.936,122.568c6.791-0.104,7.281,6.731,11.217,9.651c1.904-2.756,3.857-5.618,5.85-8.452
		c0.736-1.05,1.967-1.705,2.994-1.009c1.66,1.125-0.229,1.793-0.654,2.679c-2.385,4.957-7.809,8.547-6.762,15.069
		c0.117,0.726-0.611,1.031-1.348,1.054c-0.725,0.02-1.551-0.216-1.459-0.925C564.826,132.334,557.207,128.828,553.936,122.568z"/>
	<path fill="#FAAA19" d="M397.643,73.744c-4.129,2.426-8.578-0.031-12.811,0.836c0.002-2.345,0.002-4.688,0.002-7.033
		c3.223-4.204,7-4.519,11.666-0.97C397.27,68.904,395.635,71.615,397.643,73.744z"/>
	<path fill="#FCFCFC" d="M283.049,122.58c2.157,0.002,4.315-0.018,6.473,0.012c0.953,0.014,2.03-0.129,2.123,1.352
		c0.088,1.41-0.809,1.84-1.857,1.597c-7.122-1.656-6.326,3.09-6.134,7.437c0.081,1.821,0.115,3.657-0.024,5.475
		c-0.086,1.125,0.803,3.01-1.355,3.043c-2.529,0.041-1.495-2.096-1.557-3.316c-0.151-2.979-0.198-5.98-0.006-8.955
		c0.171-2.637-0.412-4.012-3.441-3.725c-1.173,0.111-3.461,1.08-3.483-1.326c-0.026-2.861,2.45-1.338,3.795-1.529
		C279.371,122.387,281.225,122.578,283.049,122.58z"/>
	<path fill="#FCFCFC" d="M364.06,122.598c2.323,0,4.646-0.01,6.972,0.004c0.889,0.004,1.58,0.248,1.615,1.353
		c0.031,1.002-0.381,1.752-1.373,1.563c-8.499-1.617-6.537,4.411-6.604,8.961c-0.019,1.325,0.108,2.668-0.037,3.979
		c-0.125,1.125,0.809,2.928-1.362,3.061c-2.28,0.144-1.534-1.715-1.569-2.848c-0.096-2.984-0.211-5.986,0.016-8.957
		c0.232-3.047-0.456-4.699-3.953-4.197c-1.055,0.15-2.914,0.818-3.033-1.354c-0.126-2.287,1.732-1.49,2.859-1.549
		c2.151-0.111,4.313-0.031,6.471-0.031C364.06,122.586,364.06,122.592,364.06,122.598z"/>
	<path fill="#FCFCFC" d="M164.043,122.58c2.157,0.004,4.314-0.018,6.472,0.012c0.952,0.014,2.032-0.135,2.128,1.346
		c0.092,1.406-0.795,1.848-1.851,1.603c-7.104-1.647-6.345,3.067-6.14,7.43c0.086,1.822,0.118,3.658-0.023,5.474
		c-0.088,1.123,0.813,3.008-1.344,3.053c-2.535,0.051-1.509-2.088-1.57-3.311c-0.148-2.98-0.195-5.982-0.004-8.957
		c0.168-2.627-0.396-4.021-3.435-3.73c-1.173,0.111-3.458,1.08-3.489-1.32c-0.037-2.869,2.445-1.344,3.787-1.535
		C160.365,122.387,162.217,122.578,164.043,122.58z"/>
	<path fill="#F79A1C" d="M488.502,90.581c-3.889,0-7.777,0.001-11.668,0.001c0-2.668,0-5.336,0-8.004
		c4.973-0.229,9.938-0.302,14.832,0.833C490.186,85.613,490.443,88.582,488.502,90.581z"/>
	<path fill="#F7991D" d="M520.5,90.582c-3.887,0.333-7.775,0.665-11.664,0.998c-1.992-2.399-2.299-5.072-1.285-7.957
		c4.143,0.354,8.061-1.838,12.236-1.079C521.549,85.088,520.385,87.891,520.5,90.582z"/>
	<path fill="#F6921E" d="M472.5,98.582c-3.889,0-7.777,0-11.666,0c0-2.678,0-5.354-0.002-8.031c3.898-3.201,7.783-1.593,11.67,0.029
		C472.5,93.248,472.5,95.914,472.5,98.582z"/>
	<path fill="#FCFCFC" d="M328.667,131.699c-0.001-9.121,0.002-9.24,9.378-9.031c2.168,0.047,6.19-1.518,6.242,1.299
		c0.061,3.275-3.926,1.408-6.008,1.502c-6.604,0.297-6.611,0.111-6.612,6.516c0,2.156,0.095,4.32-0.039,6.472
		c-0.07,1.12,0.813,2.924-1.356,3.062c-2.281,0.145-1.522-1.712-1.573-2.847C328.596,136.35,328.667,134.023,328.667,131.699z"/>
	<path fill="#FCFCFC" d="M487.67,131.664c-0.002-1.99-0.1-3.99,0.035-5.973c0.078-1.121-0.809-2.929,1.369-3.052
		c2.283-0.131,1.521,1.73,1.561,2.859c0.098,2.983,0.221,5.989-0.02,8.959c-0.25,3.101,0.533,4.61,3.984,4.174
		c2.287-0.289,4.643-0.063,6.967-0.043c0.977,0.01,2.012-0.063,2.082,1.406c0.068,1.452-0.857,1.573-1.916,1.575
		c-3.984,0.004-7.971-0.063-11.951,0.027c-1.881,0.043-2.166-0.93-2.127-2.465C487.717,136.646,487.67,134.154,487.67,131.664z"/>
	<path fill="#F79A1C" d="M472.502,90.581c-3.891,0.35-7.775-1.336-11.67-0.029c-0.088-2.373-0.305-4.722-1.283-6.93
		c4.416,0.877,8.479-2.649,12.951-1.045C472.5,85.245,472.5,87.913,472.502,90.581z"/>
	<path fill="#FCFCFC" d="M194.666,132.455c-0.002,2.322,0.018,4.645-0.012,6.967c-0.013,0.947,0.142,2.033-1.337,2.131
		c-1.396,0.094-1.856-0.775-1.611-1.84c1.626-7.049-3.008-6.324-7.41-6.201c-1.207,0.033-3.379,1.08-3.523-1.316
		c-0.152-2.521,2.059-1.366,3.291-1.582c0.966-0.17,2.004-0.159,2.977-0.012c3.498,0.529,5.307-0.451,4.715-4.43
		c-0.169-1.135-1.095-3.375,1.325-3.49c2.507-0.119,1.442,2.084,1.54,3.309C194.792,128.133,194.667,130.299,194.666,132.455z"/>
	<path fill="#FCFCFC" d="M436.666,132.564c-0.002,2.322,0.01,4.646-0.01,6.967c-0.008,0.99,0.033,2.021-1.447,2.035
		c-1.434,0.015-1.732-0.969-1.504-1.961c1.68-7.283-3.361-5.992-7.514-6.084c-1.217-0.026-3.43,1.063-3.428-1.43
		c0-2.412,2.16-1.262,3.406-1.479c0.965-0.17,2.008-0.176,2.977-0.01c3.709,0.639,5.107-0.771,4.604-4.537
		c-0.152-1.14-1.072-3.424,1.432-3.392c2.396,0.031,1.336,2.185,1.438,3.425C436.793,128.242,436.668,130.408,436.666,132.564z"/>
	<path fill="#FBB215" d="M396.5,66.577c-4.004-1.07-8.02-2.261-11.666,0.97c-0.43-7.988-0.393-7.528,6.752-8.101
		C398.254,58.913,396.658,62.989,396.5,66.577z"/>
	<path fill="#FCFCFC" d="M178.664,132.197c0.001,2.326,0.022,4.651-0.009,6.979c-0.014,1.111,0.277,2.469-1.605,2.375
		c-1.475-0.076-1.365-1.15-1.369-2.113c-0.018-4.983-0.006-9.969-0.008-14.955c0-1.088,0.18-1.967,1.608-1.879
		c1.47,0.092,1.364,1.148,1.374,2.115C178.679,127.211,178.663,129.703,178.664,132.197z"/>
	<path fill="#FCFCFC" d="M420.656,132.346c0,2.492,0.012,4.986-0.006,7.479c-0.008,0.845-0.119,1.617-1.254,1.72
		c-1.348,0.121-1.723-0.599-1.723-1.756c0.006-5.15-0.004-10.304,0.012-15.453c0.002-0.843,0.113-1.621,1.25-1.722
		c1.342-0.116,1.729,0.595,1.725,1.757C420.654,127.029,420.658,129.688,420.656,132.346z"/>
	<path fill="#FCFCFC" d="M338.532,130.582c1.113,0,1.943-0.018,2.771,0.004c1.133,0.027,2.454-0.219,2.334,1.641
		c-0.096,1.473-1.178,1.307-2.133,1.342c-0.828,0.031-1.715,0.199-2.477-0.026c-1.774-0.529-5.106,1.565-5.095-1.604
		C333.942,129.229,337.178,131.273,338.532,130.582z"/>
	<path fill="#FCFCFC" d="M385.732,133.576c-1.119,0-1.947,0.002-2.777-0.002c-1.182-0.002-2.422,0.086-2.248-1.719
		c0.145-1.476,1.268-1.222,2.199-1.267c0.828-0.039,1.723-0.211,2.475,0.028c1.746,0.56,5.107-1.631,5.014,1.673
		C390.322,134.852,387.117,132.939,385.732,133.576z"/>
	<path fill="#FCFCFC" d="M207.913,133.563c-1.595,0-2.59,0.012-3.584-0.002c-0.89-0.014-1.564-0.248-1.637-1.344
		c-0.092-1.402,0.733-1.645,1.847-1.635c0.995,0.01,2.045-0.207,2.974,0.041c1.701,0.455,4.871-1.387,4.909,1.316
		C212.476,135.713,208.757,131.969,207.913,133.563z"/>
</g>
<g>
	<linearGradient id="SVGID_1_" gradientUnits="userSpaceOnUse" x1="108.4746" y1="164.4404" x2="141.6453" y2="106.9872">
		<stop  offset="0" style="stop-color:#1BA2DD"/>
		<stop  offset="1" style="stop-color:#0473BA"/>
	</linearGradient>
	<polygon fill="url(#SVGID_1_)" points="83.726,95.982 129.034,176.311 160.421,185.789 104.2,85.368 	"/>
	<linearGradient id="SVGID_2_" gradientUnits="userSpaceOnUse" x1="64.8408" y1="18.6196" x2="47.7829" y2="102.8947">
		<stop  offset="0" style="stop-color:#FAB542"/>
		<stop  offset="1" style="stop-color:#EE7526"/>
	</linearGradient>
	<polygon fill="url(#SVGID_2_)" points="5.767,130.51 23.969,143.764 52.923,47.317 68.965,75.349 91.751,65.645 57.969,9.764 
		43.969,10.264 	"/>
	<linearGradient id="SVGID_3_" gradientUnits="userSpaceOnUse" x1="235.7813" y1="-23.522" x2="53.1597" y2="145.6189">
		<stop  offset="0" style="stop-color:#1BA2DD"/>
		<stop  offset="1" style="stop-color:#0473BA"/>
	</linearGradient>
	<path fill="url(#SVGID_3_)" d="M23.976,143.777l16.75-55.795c0,0,163.176-78.466,241.088-84.983
		C281.814,3,109.226,65.982,23.976,143.777z"/>
</g>
</svg>
